#!OML:ASF Y:\EmotionMaleHayes\Project 1\Capture day 1\Session 1\Male1.ASF
:FULLY-SPECIFIED
:DEGREES
243
root 4.09127 16.138 -8.72509 141.818 62.0537 -227.964
lowerback 21.6442 0.140526 -12.1975
upperback 5.49685 -1.99135 -1.77918
thorax -5.59721 -0.617204 5.47642
lowerneck -17.441 -7.24418 -4.89739
upperneck 14.5752 -10.1793 8.66737
head 8.09649 -4.24748 2.41447
rclavicle -6.44062e-014 -1.11319e-014
rhumerus -46.2912 -21.5954 -36.9007
rradius 55.2239
rwrist -16.792
rhand -26.5524 -37.6079
rfingers 7.12502
rthumb 0.0121721 -67.5877
lclavicle -6.44062e-014 -1.11319e-014
lhumerus -1.32827 12.5069 41.7237
lradius 50.254
lwrist 30.0964
lhand -27.6932 -13.8385
lfingers 7.12502
lthumb -1.08963 16.1385
rfemur -29.1546 -11.3067 0.434869
rtibia 69.4264
rfoot 167.527 13.9053
rtoes 20.2215
lfemur -7.97615 5.09648 -24.0305
ltibia 28.043
lfoot -17.1207 5.28279
ltoes -33.2801
244
root 4.30426 16.2175 -8.7895 139.043 62.6405 -230.642
lowerback 21.964 -0.0839616 -12.3673
upperback 5.60098 -2.34423 -1.75645
thorax -5.57188 -0.78709 5.6911
lowerneck -17.699 -6.71046 -4.82773
upperneck 14.8684 -9.36022 8.01501
head 8.13926 -3.91009 2.29077
rclavicle 1.98785e-014 3.18055e-014
rhumerus -47.4465 -24.9519 -31.6203
rradius 56.6427
rwrist -19.5146
rhand -27.2416 -38.443
rfingers 7.12502
rthumb -0.653477 -68.4217
lclavicle 1.98785e-014 3.18055e-014
lhumerus -0.175043 8.3105 44.6014
lradius 50.1075
lwrist 28.9117
lhand -26.8368 -14.1522
lfingers 7.12502
lthumb -0.2625 15.8274
rfemur -32.9062 -12.1633 0.987552
rtibia 70.5736
rfoot 168.027 12.4054
rtoes 16.2721
lfemur -5.62992 3.96769 -24.328
ltibia 26.0786
lfoot -16.3009 5.2911
ltoes -32.9468
245
root 4.52464 16.3007 -8.84916 136.163 63.3488 -233.515
lowerback 22.1417 -0.307804 -12.5987
upperback 5.66808 -2.69984 -1.73682
thorax -5.50699 -0.962306 5.93458
lowerneck -17.9589 -6.02366 -4.28919
upperneck 15.234 -8.36502 6.90295
head 8.15908 -3.50874 1.96158
rclavicle -3.97569e-015 -3.02153e-014
rhumerus -48.2423 -27.7817 -27.0359
rradius 58.0923
rwrist -21.3498
rhand -26.9394 -38.5654
rfingers 7.12502
rthumb -0.361602 -68.5449
lclavicle -3.97569e-015 -3.02153e-014
lhumerus 0.765081 3.85155 47.1223
lradius 50.0895
lwrist 27.5022
lhand -26.178 -14.3142
lfingers 7.12502
lthumb 0.373805 15.6652
rfemur -36.5194 -12.5614 1.87901
rtibia 72.3151
rfoot 168.433 10.626
rtoes 11.7377
lfemur -3.50972 3.68527 -24.4544
ltibia 24.2935
lfoot -14.9301 5.42673
ltoes -36.1067
246
root 4.75745 16.3848 -8.90612 132.714 63.7684 -237.077
lowerback 22.2409 -0.516093 -13.2236
upperback 5.66638 -3.12642 -1.85341
thorax -5.4405 -1.16547 6.26256
lowerneck -18.1046 -5.28059 -3.67511
upperneck 15.5682 -7.33186 5.90523
head 8.16766 -3.07737 1.66317
rclavicle -5.64548e-014 -5.40694e-014
rhumerus -48.8756 -30.2128 -22.9793
rradius 59.468
rwrist -23.2797
rhand -26.5593 -38.0236
rfingers 7.12502
rthumb 0.00552496 -68.0034
lclavicle -5.64548e-014 -5.40694e-014
lhumerus 1.2989 -0.999155 49.2834
lradius 50.4569
lwrist 25.9797
lhand -25.6571 -14.2878
lfingers 7.12502
lthumb 0.876971 15.6902
rfemur -39.7744 -12.5936 2.44257
rtibia 74.702
rfoot 168.836 8.87549
rtoes 13.3713
lfemur -1.57763 3.77532 -24.9267
ltibia 22.8158
lfoot -13.441 4.98233
ltoes -37.2253
247
root 5.00488 16.4689 -8.95727 129.197 63.8866 -240.734
lowerback 22.3296 -0.714558 -13.919
upperback 5.67302 -3.55439 -2.04695
thorax -5.35047 -1.36808 6.54129
lowerneck -18.2497 -4.73949 -3.51941
upperneck 15.8135 -6.55069 5.43448
head 8.21146 -2.74135 1.57932
rclavicle 6.20208e-014 3.49861e-014
rhumerus -49.2567 -32.3054 -19.288
rradius 60.531
rwrist -24.9937
rhand -26.7319 -38.4661
rfingers 7.12502
rthumb -0.161142 -68.4458
lclavicle 6.20208e-014 3.49861e-014
lhumerus 1.92388 -5.84596 51.4713
lradius 50.7818
lwrist 23.8662
lhand -24.9597 -14.3346
lfingers 7.12502
lthumb 1.55048 15.6396
rfemur -42.568 -12.6088 2.92119
rtibia 77.7103
rfoot 169.289 7.92107
rtoes 13.0437
lfemur 0.186421 3.87103 -25.5685
ltibia 21.6168
lfoot -11.2872 4.30711
ltoes -37.3371
248
root 5.26493 16.554 -8.99036 126.125 63.928 -243.991
lowerback 22.2615 -1.00087 -14.6419
upperback 5.74299 -4.06344 -2.23133
thorax -5.07887 -1.6256 6.84947
lowerneck -18.5313 -4.16667 -3.43941
upperneck 16.0821 -5.72858 5.09524
head 8.29731 -2.37569 1.55456
rclavicle -1.27222e-014 -4.92986e-014
rhumerus -49.006 -34.0476 -16.3258
rradius 61.2717
rwrist -26.6368
rhand -26.9668 -38.6594
rfingers 7.12502
rthumb -0.38801 -68.6388
lclavicle -1.27222e-014 -4.92986e-014
lhumerus 2.71513 -10.3781 53.4511
lradius 51.1142
lwrist 21.5797
lhand -23.9196 -13.8822
lfingers 7.12502
lthumb 2.55502 16.0822
rfemur -44.9601 -12.5634 3.73475
rtibia 82.3206
rfoot 162.179 35.4177
rtoes 11.9417
lfemur 1.70423 4.06424 -25.8982
ltibia 20.5621
lfoot -8.36286 3.34192
ltoes -36.4853
249
root 5.53566 16.6408 -9.00177 123.464 64.0372 -246.895
lowerback 22.1492 -1.37661 -15.373
upperback 5.71907 -4.70137 -2.49433
thorax -4.85821 -1.94034 7.09662
lowerneck -18.8708 -3.27743 -2.59564
upperneck 16.4278 -4.60731 4.38018
head 8.38217 -1.85917 1.31805
rclavicle -2.78299e-014 -6.91771e-014
rhumerus -48.3545 -35.1354 -14.3504
rradius 61.9257
rwrist -28.3247
rhand -27.7174 -39.2002
rfingers 7.12502
rthumb -1.11295 -69.1771
lclavicle -2.78299e-014 -6.91771e-014
lhumerus 3.23072 -14.8951 54.939
lradius 51.3897
lwrist 19.0018
lhand -23.2397 -16.089
lfingers 7.12502
lthumb 3.21165 13.8665
rfemur -46.942 -12.2431 4.89453
rtibia 87.368
rfoot 146.176 61.7931
rtoes 11.8922
lfemur 2.99636 4.25403 -25.7783
ltibia 19.592
lfoot -5.31213 2.00048
ltoes -34.283
250
root 5.81022 16.7269 -8.99994 121 64.1997 -249.611
lowerback 22.203 -1.67389 -15.8731
upperback 5.55907 -5.24688 -2.81012
thorax -4.92167 -2.18429 7.14831
lowerneck -18.7739 -2.53219 -1.63756
upperneck 16.4914 -3.71049 3.66214
head 8.319 -1.4518 1.03628
rclavicle 1.35174e-014 -3.18055e-014
rhumerus -48.0612 -35.7604 -12.4291
rradius 62.5325
rwrist -29.614
rhand -28.6043 -40.0569
rfingers 7.12502
rthumb -1.96956 -70.0275
lclavicle 1.35174e-014 -3.18055e-014
lhumerus 3.6269 -19.4252 56.4641
lradius 51.8653
lwrist 16.4803
lhand -22.6367 -17.5446
lfingers 7.12502
lthumb 3.79395 12.4013
rfemur -48.5327 -11.6783 6.23377
rtibia 89.5483
rfoot 68.5955 76.514
rtoes 13.0452
lfemur 4.13888 4.31251 -25.3597
ltibia 18.7274
lfoot -1.77446 0.666647
ltoes -30.9253
251
root 6.08864 16.8089 -8.98907 118.796 64.3693 -251.953
lowerback 21.9406 -1.996 -16.3059
upperback 5.66046 -5.6954 -3.04195
thorax -4.54161 -2.42857 7.1954
lowerneck -18.4862 -1.90685 -1.11184
upperneck 16.137 -2.89782 3.18518
head 8.1103 -1.09451 0.89409
rclavicle 3.97569e-015 -6.12257e-014
rhumerus -47.7244 -36.3675 -10.668
rradius 63.2367
rwrist -30.7223
rhand -29.5344 -40.696
rfingers 7.12502
rthumb -2.86785 -70.6565
lclavicle 3.97569e-015 -6.12257e-014
lhumerus 4.26687 -23.413 58.1729
lradius 52.3039
lwrist 13.8795
lhand -22.9031 -20.0303
lfingers 7.12502
lthumb 3.53664 9.92014
rfemur -49.5207 -11.0366 7.67026
rtibia 87.2535
rfoot 11.8889 56.115
rtoes 13.3963
lfemur 5.21618 4.17835 -24.6835
ltibia 17.9842
lfoot 2.53217 -0.471843
ltoes -23.2531
